<svg xmlns="http://www.w3.org/2000/svg" viewBox="0 0 276 265" fill="currentColor" fill-rule="evenodd">
  <path d="M 71,27 L 70,28 L 65,28 L 65,31 L 69,33 L 72,36 L 73,38 L 72,44 L 69,56 L 68,67 L 68,88 L 65,91 L 59,92 L 54,95 L 49,97 L 44,97 L 32,102 L 25,102 L 19,105 L 13,105 L 12,106 L 10,106 L 15,110 L 17,111 L 21,112 L 23,114 L 28,115 L 33,118 L 37,118 L 40,120 L 51,121 L 60,119 L 62,119 L 64,121 L 58,140 L 53,149 L 50,162 L 43,177 L 38,181 L 36,186 L 36,191 L 39,196 L 40,200 L 49,208 L 52,215 L 56,219 L 58,224 L 60,227 L 64,231 L 65,233 L 68,244 L 69,246 L 76,253 L 79,253 L 81,251 L 84,243 L 84,241 L 83,240 L 83,238 L 85,230 L 86,211 L 85,188 L 83,174 L 83,154 L 88,144 L 84,144 L 84,137 L 87,131 L 88,124 L 88,113 L 91,110 L 96,110 L 101,107 L 107,107 L 108,106 L 110,106 L 114,101 L 114,95 L 113,93 L 106,87 L 104,86 L 94,84 L 87,81 L 88,57 L 90,51 L 91,41 L 89,38 L 88,35 L 84,31 L 78,28 L 75,27 Z" />
  <path d="M 68,179 L 69,198 L 69,211 L 66,214 L 57,210 L 52,206 L 48,202 L 49,198 L 51,195 L 62,182 Z" />
  <path d="M 64,160 L 67,161 L 67,164 L 63,168 L 60,167 L 62,162 Z" />
  <path d="M 183,10 L 178,15 L 183,17 L 186,20 L 186,41 L 182,45 L 180,46 L 177,46 L 175,44 L 176,37 L 175,34 L 173,30 L 172,29 L 171,29 L 169,27 L 161,23 L 152,23 L 153,26 L 160,32 L 160,45 L 159,49 L 157,51 L 136,52 L 142,56 L 155,62 L 157,64 L 158,66 L 158,74 L 155,77 L 136,77 L 141,82 L 142,82 L 144,84 L 149,86 L 153,86 L 157,87 L 159,89 L 160,91 L 159,94 L 154,96 L 145,102 L 140,102 L 133,105 L 126,105 L 123,107 L 115,106 L 113,109 L 114,116 L 115,117 L 115,120 L 118,121 L 120,119 L 123,119 L 134,113 L 139,112 L 144,112 L 150,110 L 159,106 L 164,106 L 172,114 L 173,122 L 172,123 L 172,126 L 170,128 L 163,132 L 158,137 L 158,139 L 163,139 L 168,136 L 170,136 L 172,138 L 172,140 L 170,149 L 163,152 L 156,151 L 150,138 L 148,137 L 148,147 L 147,157 L 145,162 L 145,170 L 144,177 L 141,180 L 133,182 L 130,182 L 125,183 L 120,186 L 110,186 L 109,188 L 109,190 L 111,193 L 111,198 L 112,200 L 117,200 L 126,195 L 131,195 L 136,193 L 142,192 L 144,216 L 144,225 L 143,235 L 145,237 L 145,240 L 147,242 L 149,242 L 152,240 L 152,237 L 153,236 L 152,229 L 153,191 L 156,188 L 162,186 L 174,186 L 180,185 L 183,183 L 185,184 L 194,182 L 207,183 L 209,185 L 210,200 L 210,207 L 209,218 L 207,220 L 203,220 L 200,218 L 197,217 L 193,217 L 184,212 L 182,210 L 181,210 L 179,209 L 181,211 L 181,213 L 185,220 L 190,225 L 192,230 L 199,235 L 207,244 L 210,246 L 215,248 L 221,246 L 223,242 L 224,236 L 225,225 L 225,201 L 223,186 L 225,184 L 238,184 L 249,185 L 252,187 L 259,187 L 261,184 L 264,182 L 262,179 L 262,176 L 260,174 L 246,167 L 239,166 L 235,169 L 224,169 L 222,167 L 222,156 L 224,146 L 225,136 L 223,132 L 216,125 L 209,121 L 206,120 L 192,121 L 190,119 L 191,107 L 188,106 L 187,104 L 189,102 L 201,101 L 208,102 L 212,104 L 217,105 L 225,106 L 233,106 L 240,107 L 244,109 L 249,109 L 251,108 L 252,102 L 249,96 L 239,90 L 229,90 L 227,92 L 216,93 L 213,92 L 212,93 L 197,93 L 195,91 L 195,85 L 200,80 L 205,78 L 209,74 L 211,73 L 213,73 L 215,72 L 216,70 L 216,68 L 215,66 L 213,64 L 207,61 L 198,60 L 200,58 L 204,56 L 213,56 L 217,54 L 219,52 L 219,48 L 218,46 L 213,42 L 211,41 L 206,40 L 200,37 L 198,35 L 199,27 L 201,25 L 201,21 L 200,18 L 197,15 L 192,13 L 189,10 Z" />
  <path d="M 156,169 L 157,159 L 159,159 L 168,162 L 159,170 Z" />
  <path d="M 201,129 L 205,133 L 205,149 L 207,165 L 207,169 L 205,171 L 185,172 L 183,170 L 184,166 L 185,164 L 187,162 L 188,162 L 196,153 L 198,153 L 200,149 L 199,145 L 191,140 L 189,140 L 187,138 L 187,133 L 189,131 L 193,129 Z" />
  <path d="M 186,92 L 184,94 L 180,96 L 170,97 L 168,94 L 171,91 L 173,90 L 181,88 L 185,90 Z" />
  <path d="M 184,65 L 184,69 L 182,71 L 178,71 L 172,72 L 171,68 L 175,64 L 182,63 Z" />
</svg>