<svg xmlns="http://www.w3.org/2000/svg" viewBox="0 0 281 269" fill="currentColor" fill-rule="evenodd">
  <path d="M 268,181 L 266,180 L 264,180 L 262,178 L 260,178 L 258,176 L 253,176 L 251,174 L 241,174 L 239,176 L 228,176 L 226,178 L 221,178 L 218,179 L 208,184 L 205,186 L 217,186 L 219,184 L 233,184 L 235,186 L 235,188 L 229,197 L 227,201 L 226,205 L 225,207 L 222,210 L 222,212 L 217,217 L 212,217 L 210,219 L 208,219 L 205,216 L 205,211 L 204,207 L 202,204 L 202,198 L 200,194 L 195,193 L 193,191 L 181,191 L 179,189 L 176,189 L 174,187 L 168,187 L 166,189 L 158,189 L 156,191 L 151,191 L 149,193 L 147,193 L 144,195 L 147,195 L 149,197 L 153,197 L 155,199 L 155,203 L 152,212 L 150,216 L 139,230 L 139,233 L 141,235 L 142,237 L 141,241 L 145,246 L 149,246 L 151,244 L 158,244 L 159,242 L 159,239 L 162,236 L 167,226 L 169,218 L 171,214 L 176,209 L 178,209 L 180,211 L 181,213 L 181,221 L 183,224 L 183,230 L 181,234 L 181,236 L 182,238 L 189,244 L 197,244 L 199,242 L 208,242 L 213,237 L 216,239 L 220,239 L 223,237 L 228,237 L 230,235 L 233,235 L 235,233 L 238,233 L 244,229 L 243,224 L 250,218 L 251,216 L 251,214 L 256,209 L 258,205 L 258,203 L 261,198 L 267,193 L 269,189 L 269,184 L 268,183 Z" />
  <path d="M 221,101 L 217,101 L 215,99 L 198,99 L 196,101 L 190,101 L 188,103 L 184,103 L 182,105 L 178,106 L 174,108 L 171,111 L 173,111 L 175,109 L 180,109 L 182,107 L 186,107 L 188,109 L 188,112 L 187,114 L 175,130 L 171,134 L 168,135 L 166,139 L 166,141 L 168,143 L 169,145 L 169,147 L 170,149 L 174,152 L 180,152 L 188,147 L 193,147 L 192,145 L 187,141 L 187,139 L 189,134 L 199,124 L 202,124 L 209,117 L 220,112 L 223,107 L 223,103 Z" />
  <path d="M 12,66 L 13,69 L 18,78 L 18,83 L 23,96 L 23,103 L 25,108 L 25,168 L 24,176 L 22,184 L 22,198 L 21,204 L 19,206 L 17,205 L 17,207 L 16,208 L 16,221 L 14,224 L 14,229 L 10,236 L 10,239 L 12,241 L 12,243 L 14,245 L 15,247 L 15,249 L 16,251 L 23,252 L 27,248 L 29,244 L 30,233 L 29,217 L 29,198 L 31,190 L 31,180 L 33,172 L 33,162 L 35,158 L 35,147 L 37,144 L 38,138 L 38,130 L 39,128 L 41,126 L 43,126 L 45,127 L 48,130 L 50,130 L 53,126 L 58,126 L 61,124 L 64,121 L 66,120 L 73,120 L 73,122 L 72,125 L 70,127 L 70,129 L 69,131 L 62,141 L 59,144 L 55,144 L 50,147 L 51,151 L 49,153 L 49,156 L 54,165 L 58,165 L 59,164 L 64,164 L 66,161 L 70,160 L 72,163 L 70,166 L 70,170 L 67,176 L 67,180 L 62,189 L 55,196 L 49,199 L 47,199 L 45,200 L 44,212 L 45,214 L 49,219 L 49,220 L 50,221 L 51,221 L 53,222 L 56,220 L 64,220 L 67,218 L 72,218 L 74,216 L 78,216 L 80,214 L 82,214 L 84,212 L 88,212 L 92,209 L 97,208 L 99,206 L 99,205 L 102,203 L 104,205 L 105,207 L 105,215 L 108,229 L 110,236 L 117,250 L 119,253 L 124,257 L 130,257 L 132,254 L 141,255 L 145,253 L 143,251 L 143,250 L 137,242 L 129,234 L 128,230 L 124,225 L 124,224 L 121,220 L 120,220 L 118,218 L 115,211 L 111,207 L 102,201 L 100,200 L 97,200 L 95,198 L 93,198 L 91,195 L 89,196 L 88,199 L 82,200 L 80,198 L 80,196 L 81,194 L 84,191 L 84,188 L 87,186 L 90,181 L 91,178 L 92,172 L 93,170 L 98,166 L 106,155 L 106,148 L 102,143 L 96,142 L 93,140 L 90,140 L 88,135 L 98,125 L 103,123 L 105,120 L 108,120 L 116,116 L 121,110 L 121,106 L 119,104 L 118,101 L 116,101 L 113,99 L 109,99 L 107,97 L 103,97 L 101,95 L 97,95 L 93,93 L 91,94 L 89,96 L 85,97 L 81,101 L 79,101 L 77,103 L 74,103 L 72,105 L 70,105 L 68,107 L 64,108 L 63,106 L 64,104 L 71,97 L 73,96 L 77,96 L 79,94 L 82,94 L 85,90 L 90,90 L 97,81 L 97,77 L 90,70 L 87,69 L 85,67 L 72,62 L 70,60 L 68,60 L 69,64 L 68,76 L 66,79 L 66,83 L 64,89 L 61,94 L 61,97 L 59,99 L 59,101 L 56,103 L 50,110 L 48,110 L 46,108 L 46,98 L 45,97 L 45,92 L 41,89 L 41,87 L 40,85 L 33,78 L 24,72 L 22,71 L 20,71 L 18,68 L 14,66 Z" />
  <path d="M 142,10 L 143,14 L 141,18 L 141,28 L 139,37 L 138,46 L 138,64 L 136,75 L 136,91 L 134,100 L 134,108 L 136,106 L 137,104 L 138,99 L 140,95 L 144,92 L 147,84 L 149,80 L 152,78 L 153,80 L 156,81 L 158,83 L 163,83 L 165,81 L 172,81 L 174,79 L 182,79 L 184,81 L 183,84 L 181,86 L 178,87 L 177,88 L 176,90 L 176,92 L 183,85 L 186,83 L 190,82 L 192,81 L 194,79 L 198,77 L 201,77 L 203,75 L 209,75 L 213,74 L 215,72 L 223,72 L 225,70 L 236,70 L 235,65 L 232,65 L 230,63 L 224,62 L 214,62 L 212,60 L 207,60 L 205,62 L 202,62 L 197,65 L 194,65 L 192,67 L 185,67 L 183,69 L 177,69 L 175,71 L 168,71 L 166,73 L 157,73 L 155,71 L 160,67 L 161,65 L 161,63 L 164,60 L 166,60 L 168,62 L 168,58 L 171,55 L 173,58 L 176,57 L 178,49 L 185,37 L 185,31 L 179,27 L 175,26 L 172,24 L 167,19 L 165,18 L 163,18 L 159,15 L 155,15 L 153,13 L 150,13 L 148,11 L 145,10 Z" />
</svg>